{"title":"Conspirators 2013 BRRip 720p x264 AAC - PRiSTiNE [P2PDL]","uid":8651036,"size":691306061,"categoryP":"video","categoryS":"hd___movies","magnet":"?xt=urn:btih:cfa4a54519949418e90ef7d0e7ffd86e5c610717&amp;dn=Conspirators+2013+BRRip+720p+x264+AAC+-+PRiSTiNE+%5BP2PDL%5D&amp;tr=udp%3A%2F%2Ftracker.openbittorrent.com%3A80&amp;tr=udp%3A%2F%2Fopen.demonii.com%3A1337&amp;tr=udp%3A%2F%2Ftracker.coppersurfer.tk%3A6969&amp;tr=udp%3A%2F%2Fexodus.desync.com%3A6969","seeders":0,"leechers":1,"uploader":"ValidusVyto","files":-1,"time":1373103888,"description":"_______ Visit us at our Semi Public Bittorrent Community ________\n  &lt;a href=&quot;\nhttp://p2pdl.com&quot; rel=&quot;nofollow&quot; target=&quot;_NEW&quot;&gt;\nhttp://p2pdl.com&lt;/a&gt;  _____________________________ &lt;a href=&quot; http://p2pdl.com&quot; rel=&quot;nofollow&quot; target=&quot;_NEW&quot;&gt; http://p2pdl.com&lt;/a&gt;\n\n\nConspirators 2013 BRRip 720p x264 AAC - PRiSTiNE\n\n\nGenre: Crime | Thriller \nPlot: A story about 2 detectives from 2 different countries investigating the same\ncase. As their investigation brings them closer to the truth, they found out something\nelse. What can it be, and what is the truth that lies within?   \nDirector: Oxide Pang Chun\nStars: Ah-Niu, Kuan Tai Chen, Nick Cheung.\nRated: N/a\n\nInfo: &lt;a href=&quot;\nhttp://www.imdb.com/title/tt2927068/&quot; rel=&quot;nofollow&quot; target=&quot;_NEW&quot;&gt;\nhttp://www.imdb.com/title/tt2927068/&lt;/a&gt;\n\n\nFormat                         : MPEG-4\nFile size                      : 651 MiB\nDuration                       : 1h 42mn\nOverall bit rate               : 884 Kbps\nSource                         : BluRay.720p.x264.DTS-HDWinG\n\nVideo\nFormat                         : AVC\nBit rate                       : 802 Kbps\nWidth                          : 1 280 pixels\nHeight                         : 536 pixels\nDisplay aspect ratio           : 2.40:1\nFrame rate mode                : Constant\nFrame rate                     : 24.000 fps\nStream size                    : 590 MiB (91%)\nWriting library                : x264 core 130 r2273 \n\nAudio\nFormat                         : AAC\nBit rate mode                  : Variable\nBit rate                       : 80.0 Kbps\nChannel(s)                     : 2 channels\nChannel positions              : Front: L R\nSampling rate                  : 48.0 KHz\nStream size                    : 58.9 MiB (9%)\nLanguage                       : Chinese(Cantonese)\n\nSubtitle                       : Yes(English)\n &lt;a href=&quot;\nhttp://ultraimg.com/images/Da5d.png&quot; rel=&quot;nofollow&quot; target=&quot;_NEW&quot;&gt;\nhttp://ultraimg.com/images/Da5d.png&lt;/a&gt; &lt;a href=&quot;\nhttp://ultraimg.com/images/lQD9.png&quot; rel=&quot;nofollow&quot; target=&quot;_NEW&quot;&gt;\nhttp://ultraimg.com/images/lQD9.png&lt;/a&gt; &lt;a href=&quot;\nhttp://ultraimg.com/images/5P8bX.png&quot; rel=&quot;nofollow&quot; target=&quot;_NEW&quot;&gt;\nhttp://ultraimg.com/images/5P8bX.png&lt;/a&gt; &lt;a href=&quot;\nhttp://ultraimg.com/images/hfQNs.png&quot; rel=&quot;nofollow&quot; target=&quot;_NEW&quot;&gt;\nhttp://ultraimg.com/images/hfQNs.png&lt;/a&gt; &lt;a href=&quot;\nhttp://ultraimg.com/images/NQJM.png&quot; rel=&quot;nofollow&quot; target=&quot;_NEW&quot;&gt;\nhttp://ultraimg.com/images/NQJM.png&lt;/a&gt; &lt;a href=&quot;\nhttp://ultraimg.com/images/6Kewg.png&quot; rel=&quot;nofollow&quot; target=&quot;_NEW&quot;&gt;\nhttp://ultraimg.com/images/6Kewg.png&lt;/a&gt; &lt;a href=&quot;\nhttp://ultraimg.com/images/9xSZ.png&quot; rel=&quot;nofollow&quot; target=&quot;_NEW&quot;&gt;\nhttp://ultraimg.com/images/9xSZ.png&lt;/a&gt; &lt;a href=&quot;\nhttp://ultraimg.com/images/loOZV.png&quot; rel=&quot;nofollow&quot; target=&quot;_NEW&quot;&gt;\nhttp://ultraimg.com/images/loOZV.png&lt;/a&gt;\n\n----------------------------------------------------------------------------------------------------\n\n\nEncoded using revolutionary 10bit encoding, which enables us to provide you more crispier \nand sharper images at small sizes, just make sure you follow our instructions without a fault.\nRecommend to you to use latest version of VLC player. Install K-Lite Codec Pack or shark007 codecs\nin case of any kind of problem in playback (For non-VLC Media Player users). Alternatively, install\nCore AVC codecs, the fastest decoder that there is coupled with Community Center Codec Pack and play\non Windows Media Player Classic. Check sample to be sure.\nEnjoy!\n\nEncoder Notes:Looking For Early Access To Anything You Can Provide DVDScr, R5, DVDR, BluRay, Direct\nAudio, Music Releases and Seedboxes. We require dedicated servers, so as to do more \nand fast releases of movies.\nIf You Got anything to offer please contact us at &quot;&lt;a class=&quot;__cf_email__&quot; href=&quot;/cdn-cgi/l/email-protection&quot; data-cfemail=&quot;c1a2aeafb5a0a2b581b1f3b1a5adefa2aeac&quot;&gt;[email&amp;#160;protected]&lt;/a&gt;&lt;script cf-hash='f9e31' type=&quot;text/javascript&quot;&gt;\n/* &lt;![CDATA[ */!function(){try{var t=&quot;currentScript&quot;in document?document.currentScript:function(){for(var t=document.getElementsByTagName(&quot;script&quot;),e=t.length;e--;)if(t[e].getAttribute(&quot;cf-hash&quot;))return t[e]}();if(t&amp;&amp;t.previousSibling){var e,r,n,i,c=t.previousSibling,a=c.getAttribute(&quot;data-cfemail&quot;);if(a){for(e=&quot;&quot;,r=parseInt(a.substr(0,2),16),n=2;a.length-n;n+=2)i=parseInt(a.substr(n,2),16)^r,e+=String.fromCharCode(i);e=document.createTextNode(e),c.parentNode.replaceChild(e,c)}}}catch(u){}}();/* ]]&gt; */&lt;/script&gt;&quot;.\n\nFace book Fan Page:   &lt;a href=&quot;\nhttp://fbl.me/BC&quot; rel=&quot;nofollow&quot; target=&quot;_NEW&quot;&gt;\nhttp://fbl.me/BC&lt;/a&gt;","torrent":{"xt":"urn:btih:cfa4a54519949418e90ef7d0e7ffd86e5c610717","amp;dn":"Conspirators+2013+BRRip+720p+x264+AAC+-+PRiSTiNE+%5BP2PDL%5D","amp;tr":["udp%3A%2F%2Ftracker.openbittorrent.com%3A80","udp%3A%2F%2Fopen.demonii.com%3A1337","udp%3A%2F%2Ftracker.coppersurfer.tk%3A6969","udp%3A%2F%2Fexodus.desync.com%3A6969"],"infoHash":"cfa4a54519949418e90ef7d0e7ffd86e5c610717","infoHashBuffer":{"type":"Buffer","data":[207,164,165,69,25,148,148,24,233,14,247,208,231,255,216,110,92,97,7,23]},"announce":[],"urlList":[]}}